<svg width="14" height="14" viewBox="0 0 14 14" fill="none" xmlns="http://www.w3.org/2000/svg">
<path d="M10.586 6.15698L6.636 2.20698C6.45384 2.01838 6.35305 1.76578 6.35533 1.50358C6.3576 1.24138 6.46277 0.990569 6.64818 0.805161C6.83359 0.619753 7.0844 0.514584 7.3466 0.512306C7.6088 0.510027 7.8614 0.610822 8.05 0.79298L13.707 6.44998C13.8002 6.54263 13.8741 6.65279 13.9246 6.77413C13.9751 6.89546 14.001 7.02557 14.001 7.15698C14.001 7.28839 13.9751 7.4185 13.9246 7.53983C13.8741 7.66117 13.8002 7.77133 13.707 7.86398L8.05 13.521C7.95775 13.6165 7.84741 13.6927 7.7254 13.7451C7.6034 13.7975 7.47218 13.8251 7.3394 13.8262C7.20662 13.8274 7.07494 13.8021 6.95205 13.7518C6.82915 13.7015 6.7175 13.6273 6.62361 13.5334C6.52971 13.4395 6.45546 13.3278 6.40518 13.2049C6.3549 13.082 6.3296 12.9504 6.33075 12.8176C6.3319 12.6848 6.35949 12.5536 6.4119 12.4316C6.46431 12.3096 6.54049 12.1992 6.636 12.107L10.586 8.15698H1C0.734784 8.15698 0.48043 8.05162 0.292893 7.86409C0.105357 7.67655 0 7.4222 0 7.15698C0 6.89176 0.105357 6.63741 0.292893 6.44987C0.48043 6.26234 0.734784 6.15698 1 6.15698H10.586Z" fill="white"/>
</svg>
